<?xml version="1.0" encoding="utf-8"?>
<!-- Generator: Adobe Illustrator 19.1.0, SVG Export Plug-In . SVG Version: 6.00 Build 0)  -->
<svg version="1.1" id="Layer_1" xmlns="http://www.w3.org/2000/svg" xmlns:xlink="http://www.w3.org/1999/xlink" x="0px" y="0px"
	 width="1000px" height="1000px" viewBox="0 0 1000 1000" style="enable-background:new 0 0 1000 1000;" xml:space="preserve">
<style type="text/css">
	.st0{fill:#F2B705;}
	.st1{fill:#F2F2F2;}
	.st2{fill:#010151;}
	.st3{fill:#F20505;}
</style>
<g>
	<path id="path2996" d="M785,107.9c-13.2,2.9-25.9,9.2-39.4,10.5c-15.5,4.3-19.6,30.9-5.5,39.7c14.4,12.5,34,11.8,49.7,21.5
		c10.9,4.9,21.9,6.8,33.2,10.3c4.8,3.7,6.9,6.9,8.8,12.7c4.9,10.3,14.2,14.5,14-8.6C844.4,157.9,820.6,129.3,785,107.9L785,107.9z"
		/>
	<path id="path3877" d="M396.8,99.4c18.6,20.5,26.5,65.2,25.4,92.2c-4.9,21.4,8.9,54.5,31.3,57.4c17.8-2.3,33.9-9.4,52.6-13.1
		c-11.9-16.2-30.2-29.9-45.6-35.7c0.8-37.9-6-96-42.2-116.5C416.7,82.8,394.1,90.6,396.8,99.4z"/>
	<path id="path3004-0" class="st0" d="M392,99.8c-4.9,0.1-0.7,0.8-9.7-0.5c-7,13.9-39.1,68.5-34.7,80.5c4.7,1.9,60.3,6.8,69.5,1.8
		C416.7,151.4,412.3,125.7,392,99.8L392,99.8z M389.1,126c3.5,0,7,0.9,10.1,2.7c11.6,6.4,15,24.7,8,36.3c-4.8,8.9-15.2,12.4-24,9.7
		c-11-3-18.6-16.6-15.5-28.8C369.8,135,378.8,125.3,389.1,126L389.1,126z"/>
	<path id="path3004" class="st1" d="M342.8,186.2c-21.2,52-8.2,52.8,30.5,89.1c34.7,30.9,47.7,7.6,70,71.8
		c27.1-62.1-6.7-43.8,8.3-91.6c-27.2-15-33.3-23.4-37.3-67.6c0.1,1-3.2,1.2-3.7,1.2c-14.7,1.8-24.9,1.4-39.5-0.3
		c-6.2-0.7-12.2-1.4-17.7-2.1C348,186.1,343,185.6,342.8,186.2z"/>
	<path id="path4014-9" d="M244.7,307c-121.6,86.2-127,302.8-78.1,385.6c-18.5,61.6-73.3,210.9-95.7,270.1c-1.7,4.4-0.4,9.4,3.3,12.3
		c33.8,27.3,131.9,19.8,173.8-33.2c14.9-37.7,17.3-142.2,20.6-181.2c106.5-56.5,152.3-86.2,175.1-128.5
		c20.2-37.4,23.3-86.2,21.1-148.9c-1.1-30.2-5.1-60.3-12.6-89.6c-9-35.5-23.5-72.9-44.9-84.4c-50-26.8-40.9-34.2-77-56.5
		c-8.6-26.9-2.3-46.4,8.4-70.7c10.9-26.2,16.9-58.2,37.5-82.2C242.1,109.2,249.8,258.7,244.7,307z M252.2,757.2
		c-4,16.6-8.7,25.3-14.5,55c-37,5.4-63.5,10.7-83.6-22.9c9.1-24.3,14.1-38.1,25.8-63.3c13.9-1.8,29.3-8.5,37-23.3
		C213.8,714.1,240.9,758.6,252.2,757.2z"/>
	<path id="path3944-4" class="st2" d="M389,128.7c-10.6,0-19.3,9.7-19.3,21.8c0,12.1,8.6,21.9,19.3,21.9c10.6,0,19.2-9.8,19.2-21.9
		C408.2,138.4,399.6,128.7,389,128.7L389,128.7z M400.3,150.3c0,7.4-5.3,13.4-11.8,13.4c-6.5,0-11.8-6-11.8-13.4s5.3-13.4,11.8-13.4
		C395,136.8,400.3,142.8,400.3,150.3z"/>
	<ellipse id="path4005-8" cx="388.9" cy="149.6" rx="8.5" ry="9.4"/>
	<path id="path4114-4" class="st1" d="M246.2,760.3c-3.4,14.2-8.7,23.3-13.6,48.6c-31.5,4.6-55,4.2-72.2-24.4
		c7.7-20.7,11.1-31.4,21.1-52.8c11.9-1.6,27.1-5.5,33.7-18.1C212.6,723.2,236.3,762.3,246.2,760.3L246.2,760.3z"/>
	<path class="st3" d="M465.7,172.9c1.7-1.8,3.8-3.6,6.4-5.6c20.9-15.4,66.2-31.6,112.8-40.1c53.7-9.9,103.8-9.3,142.3,1.6
		c-5,10.6-3.5,25.5,6.5,31.9c15.4,13.6,36.4,12.9,53.2,23.3c11.6,5.3,23.4,10.2,35.5,14c5.1,4,7.4,10.2,9.4,16.5
		c-3.9-1.3-7.8-4.6-10.6-10.8c-103.4-20.2-212.1,11-309.5,30.1c-11.9-16.1-30-29.7-45.3-35.4C466.6,190.6,466.4,181.9,465.7,172.9z"
		/>
	<path class="st0" d="M418,80.8c29.6-20,83-30.2,142.4-30.2c77.1,0,164.2,17.2,221.8,52.6c-14.3,3.1-28.1,10.2-42.7,11.6
		c-4.7,1.3-8.5,4.6-11,8.9c-38.9-11.1-89.7-11.8-144-1.8c-47,8.6-92.8,25-113.9,40.6c-2,1.5-3.7,2.9-5.1,4.3
		c-1.1-11.5-2.9-22.9-5.9-34c-3-10.8-7.1-21.4-13-30.9c-3.8-6.1-6.6-10.2-12.1-14.9C430.3,83.6,423.3,79.4,418,80.8z"/>
</g>
</svg>
