<?xml version="1.0" encoding="UTF-8" standalone="no"?>
<!-- Generator: Adobe Illustrator 13.0.0, SVG Export Plug-In . SVG Version: 6.00 Build 14948)  -->

<svg
   xmlns:dc="http://purl.org/dc/elements/1.1/"
   xmlns:cc="http://creativecommons.org/ns#"
   xmlns:rdf="http://www.w3.org/1999/02/22-rdf-syntax-ns#"
   xmlns:svg="http://www.w3.org/2000/svg"
   xmlns="http://www.w3.org/2000/svg"
   xmlns:sodipodi="http://sodipodi.sourceforge.net/DTD/sodipodi-0.dtd"
   xmlns:inkscape="http://www.inkscape.org/namespaces/inkscape"
   version="1.1"
   id="Zebra"
   x="0px"
   y="0px"
   width="400"
   height="400"
   viewBox="0 0 400.00001 400"
   enable-background="new 0 0 60.444 137.196"
   xml:space="preserve"
   sodipodi:docname="Zebra.svg"
   inkscape:version="0.92.4 (5da689c313, 2019-01-14)"
   inkscape:export-filename="D:\Web\svg\1nove objednane svg\Ikonky\Zebra.svg.png"
   inkscape:export-xdpi="300"
   inkscape:export-ydpi="300"><metadata
     id="metadata59"><rdf:RDF><cc:Work
         rdf:about=""><dc:format>image/svg+xml</dc:format><dc:type
           rdf:resource="http://purl.org/dc/dcmitype/StillImage" /><dc:title></dc:title></cc:Work></rdf:RDF></metadata><defs
     id="defs57" /><sodipodi:namedview
     pagecolor="#ffffff"
     bordercolor="#666666"
     borderopacity="1"
     objecttolerance="10"
     gridtolerance="10"
     guidetolerance="10"
     inkscape:pageopacity="0"
     inkscape:pageshadow="2"
     inkscape:window-width="1920"
     inkscape:window-height="1001"
     id="namedview55"
     showgrid="false"
     inkscape:zoom="0.98352621"
     inkscape:cx="-266.13489"
     inkscape:cy="270.83931"
     inkscape:window-x="-9"
     inkscape:window-y="-9"
     inkscape:window-maximized="1"
     inkscape:current-layer="Zebra"
     fit-margin-top="0"
     fit-margin-left="0"
     fit-margin-right="0"
     fit-margin-bottom="0" /><g
     id="g866"
     transform="translate(129.05402,-38.969106)"><path
       style="fill:none;stroke-width:2.34745765"
       inkscape:connector-curvature="0"
       id="path2"
       d="m 62.580631,322.97057 c 0,11.42507 0,23.32668 0,31.0193 0,1.35448 -0.06572,2.61976 -0.180755,3.81931 0.201882,0.29108 0.448366,0.6479 0.746492,1.08453 3.230102,-7.1574 7.575246,-13.4791 9.061187,-15.61998 -0.112674,-1.19955 -0.178407,-2.46953 -0.178407,-3.82401 0,-10.97202 0,-30.49113 0,-44.99607 -4.051713,-0.005 -7.277119,-0.4601 -9.448517,-0.90377 0,3.77002 0,10.72788 0,18.81253 0,0.007 0.0023,0.0141 0.0023,0.0211 v 10.5706 c 0,0.005 -0.0023,0.009 -0.0023,0.0164 z" /><path
       style="fill:none;stroke-width:2.34745765"
       inkscape:connector-curvature="0"
       id="path4"
       d="m 16.253556,299.30819 c -0.652593,4.36627 -1.061051,8.08699 -1.251195,9.94853 0.02583,0.0258 0.06103,0.0329 0.08686,0.0587 l 10.227873,10.7138 c -2.558732,-11.29831 -5.237181,-23.31495 -7.061155,-31.52636 -0.812221,3.50945 -1.490636,7.3452 -2.002382,10.80535 z" /><path
       style="fill:#ffffff;stroke-width:2.34745765"
       inkscape:connector-curvature="0"
       id="path6"
       d="m 68.179317,355.26454 c -0.01408,0.0704 -1.150254,3.93434 -1.875618,8.51422 1.331008,2.17611 2.786431,4.73953 4.138567,7.48606 -0.01879,-0.32162 -0.03287,-0.6479 -0.03287,-1.00002 -0.01879,-5.62686 2.293465,-13.68334 2.274685,-13.69977 0.356818,-1.2418 -0.359157,-2.54699 -1.598614,-2.9038 -1.244153,-0.35916 -2.546992,0.35916 -2.906153,1.60331 z" /><path
       style="fill:#ffffff;stroke-width:2.34745765"
       inkscape:connector-curvature="0"
       id="path8"
       d="m 82.700689,333.47544 c -1.838059,-0.29578 -2.814601,-0.96481 -3.180805,-1.36153 v 0.005 c -0.906118,-0.92725 -0.892033,-2.41553 0.03521,-3.32165 0.849779,-0.8357 2.180787,-0.88969 3.093949,-0.16667 0.007,0.005 0.03756,0.0164 0.05164,0.0235 0,-5.34281 0,-10.74901 0,-15.74674 -0.0446,1.25589 -1.065745,2.26999 -2.32633,2.26999 -1.422559,-0.0376 -2.6315,-0.36386 -3.650296,-0.831 0,9.48138 0,18.73506 0,25.10606 -0.0047,5.22074 1.009406,8.76775 2.258254,10.82178 1.277016,2.06811 2.558729,2.61272 3.622127,2.6268 0.03052,0 0.06338,-0.009 0.09624,-0.009 0,-5.22544 0,-12.11523 0,-19.41582 z" /><path
       style="fill:#ffffff;stroke-width:2.34745765"
       inkscape:connector-curvature="0"
       id="path10"
       d="m 82.700689,312.74739 c 0,-6.83815 0,-12.88754 0,-16.94395 v -2.37328 c -2.105669,0.39907 -4.09866,0.65494 -5.976626,0.81457 0,4.39209 0,9.24194 0,14.19038 0.176059,0.23709 0.42489,0.53522 0.746492,0.8263 0.739449,0.66903 1.67139,1.21833 2.901457,1.22303 1.262933,-0.002 2.284076,1.00706 2.328677,2.26295 z" /><path
       style="fill:#ffffff;stroke-width:2.34745765"
       inkscape:connector-curvature="0"
       id="path12"
       d="m 29.267861,316.23102 c 0.375593,0 0.753534,0.0587 1.110347,0.24883 0.0047,-0.0117 0.246483,0.13615 0.755881,0.30986 0.26761,0.0939 0.58217,0.17841 0.906119,0.24414 -0.401415,-1.79581 -0.791093,-3.54232 -1.166687,-5.22544 0,-0.005 -0.0023,-0.007 -0.0023,-0.009 l -0.518788,-2.33103 c -0.502355,-2.25825 -0.9695,-4.35688 -1.394389,-6.26771 l -0.258221,-1.16434 v -0.002 c -0.457754,-2.05872 -0.852127,-3.84748 -1.169034,-5.27708 -0.0493,-0.0422 -0.115025,-0.0563 -0.161974,-0.1033 -0.05634,-0.0516 -1.352136,-1.28171 -3.302872,-3.64325 1.05166,4.73013 2.258253,10.14102 3.514143,15.72796 0.556347,2.48361 1.124432,4.99774 1.687822,7.49309 z" /><path
       style="fill:#ffffff;stroke-width:2.34745765"
       inkscape:connector-curvature="0"
       id="path14"
       d="m 36.674089,347.82545 c 0.779356,2.78878 2.183136,4.27237 3.464847,4.82402 -1.995339,-8.51423 -4.622144,-20.11536 -7.028288,-30.84559 -0.0446,0 -0.09155,0.0164 -0.136152,0.0164 -0.02113,0 -0.04225,0 -0.06103,0 -0.924898,-0.009 -1.751203,-0.15023 -2.453093,-0.33334 2.704271,11.90866 5.185534,22.58255 6.21372,26.33848 z" /><path
       style="fill:#ffffff;stroke-width:2.34745765"
       inkscape:connector-curvature="0"
       id="path16"
       d="m 17.258268,181.9987 c 0.180754,0.98123 0.584517,3.05169 1.340398,5.97662 1.065746,4.14327 2.805211,9.89689 5.469577,16.2538 5.32638,12.73026 14.361744,27.81502 28.951193,37.53115 0.901424,0.5986 1.27467,1.73712 0.901424,2.75826 -0.340382,0.93194 -1.225372,1.53759 -2.201915,1.53759 -0.0892,0 -0.17606,-0.005 -0.265263,-0.0141 -0.408458,-0.0141 -23.296169,-2.82869 -42.5547112,-31.23058 -0.417847,4.00242 -0.685457,8.27949 -0.769966,12.84294 0.316907,0.56105 0.884992,1.54228 1.769984,2.9132 1.3709152,2.12445 3.3991182,5.00947 5.9836692,7.99779 5.164406,6.00245 12.544813,12.3218 21.094253,14.13404 1.025839,0.22301 1.777025,1.09157 1.849797,2.13853 0.07277,1.04697 -0.561043,2.00473 -1.544627,2.36859 -0.183102,0.061 -2.762958,0.97889 -6.781805,0.97889 -0.05634,0 -0.115026,0.002 -0.173712,0.002 -5.312296,-0.002 -13.105856,-1.80285 -20.6623212,-9.01659 0.8568212,4.87802 2.0258562,9.3241 3.3592112,13.40398 0.19484,0.17372 0.443669,0.39438 0.795789,0.67372 0.875601,0.6972 2.248864,1.67844 4.173779,2.76296 3.845135,2.15732 9.899228,4.70666 18.620033,6.08461 0.910814,0.14085 1.654958,0.81222 1.901441,1.70191 0.241788,0.88499 -0.06338,1.83806 -0.774661,2.42727 -0.197187,0.11737 -6.164424,5.18554 -14.411042,5.24657 -0.56339,0 -1.140865,-0.0305 -1.723034,-0.0845 2.436661,3.99772 4.701958,6.99073 6.36161,8.96494 0.164322,-0.0822 0.316907,-0.1831 0.504704,-0.22536 1.262932,-0.27465 2.516474,0.52114 2.798169,1.78876 0.0023,0.0164 0.737101,3.35217 1.889703,8.55179 0.152585,0.17371 0.354466,0.39438 0.636161,0.66903 0.67372,0.66433 1.723034,1.57984 3.162025,2.50004 2.877983,1.83571 7.267729,3.70429 13.497881,3.71133 1.011755,0 1.917873,0.65729 2.227738,1.62209 0.314559,0.96246 -0.03052,2.02351 -0.847432,2.61977 -0.260568,0.19249 -4.32167,3.06812 -11.439161,3.06812 -1.288755,0 -2.680797,-0.11033 -4.152653,-0.33099 0.643204,2.87799 1.316924,5.89212 2.004729,8.95085 0.507051,2.25591 1.021144,4.53764 1.53289,6.80763 2.497695,1.18781 4.741864,1.5681 6.511847,1.5681 1.870924,0.005 3.225406,-0.38498 3.706636,-0.54226 0.154932,-0.054 0.164321,-0.0587 0.164321,-0.0587 l 0.0047,0.005 c 1.192509,-0.5094 2.565773,0.0493 3.075171,1.24181 0.504703,1.19251 -0.05164,2.57046 -1.2465,3.07517 -0.199534,0.0821 -2.352153,0.97654 -5.704323,0.98123 -1.535237,0 -3.338085,-0.23944 -5.270042,-0.78639 2.746525,12.09175 5.279432,22.98864 6.317008,26.79622 1.035229,3.70194 3.173763,5.10573 4.664399,5.06582 1.058704,-0.009 2.342763,-0.55635 3.61978,-2.62681 0.894381,-1.46716 1.662,-3.71603 2.025855,-6.77711 -0.647898,0.10801 -1.269974,0.17371 -1.823974,0.17371 -0.0094,0 -0.02112,0 -0.03287,0 -1.903787,-0.005 -3.15733,-0.46949 -3.340432,-0.53522 h 0.0047 c -1.213636,-0.4601 -1.819281,-1.81928 -1.359179,-3.03291 0.46245,-1.21129 1.821628,-1.81693 3.035263,-1.35449 0.0047,-0.0117 0.0446,0.0282 0.345077,0.0916 0.300474,0.061 0.758228,0.13616 1.316923,0.13616 0.598601,-0.002 1.314577,-0.10095 2.089237,-0.35916 0,-7.16914 0,-17.58246 0,-27.88545 -1.152601,-0.0422 -2.598636,-0.12442 -4.096313,-0.29813 -2.64089,-0.40376 -5.274738,-0.67372 -7.363975,-2.55873 -0.605644,-0.60799 -0.833348,-1.4789 -0.600949,-2.30285 0.232398,-0.81927 0.884991,-1.44369 1.715991,-1.64322 0,-0.005 0.464797,-0.10564 1.302839,-0.38264 0.833348,-0.27935 1.992993,-0.71127 3.208975,-1.31457 2.302857,-1.11739 4.699611,-2.86625 5.831085,-4.96487 0,-8.7302 0,-16.066 0,-19.37357 v 0 -1.89675 c 0,-0.005 0.0023,-0.007 0.0023,-0.0117 0.0023,-0.35916 0.0892,-0.70423 0.241789,-1.01645 0.0071,-0.0141 0.0094,-0.0305 0.01643,-0.0422 0.154932,-0.30518 0.384983,-0.56809 0.661983,-0.78405 0.01408,-0.0117 0.01879,-0.0282 0.03287,-0.0399 0.0047,-0.005 0.01174,-0.005 0.01878,-0.007 0.0071,-0.007 0.01174,-0.0141 0.01878,-0.0188 0.279348,-0.19719 0.596254,-0.31926 0.924899,-0.38029 0.02112,-0.002 0.03991,-0.0117 0.06103,-0.0164 0.335686,-0.0516 0.680762,-0.0282 1.014101,0.0681 0.01878,0.007 0.03756,-0.002 0.05399,0.005 0.0047,-0.009 1.110348,0.34742 3.110382,0.71832 1.72538,0.32395 4.08927,0.63381 6.758329,0.71597 0.417848,0.0117 0.812221,0.0329 1.248848,0.0329 0.807526,0 1.662,-0.0258 2.542297,-0.0704 0.469491,-0.0258 0.920203,-0.0634 1.373262,-0.10329 0.330992,-0.0258 0.661983,-0.0493 1.004713,-0.0822 0.603296,-0.061 1.192508,-0.12911 1.748855,-0.20188 0.314559,-0.0422 0.636161,-0.0892 0.955415,-0.1385 0.354466,-0.0516 0.730059,-0.10328 1.054009,-0.15493 0.260568,-0.0446 0.509398,-0.0869 0.748839,-0.12911 0.948372,-0.17371 1.917872,-0.36621 2.91789,-0.6033 0.417847,-0.14789 2.34511,-0.831 5.185533,-2.16201 3.230102,-1.51645 7.551771,-3.83809 11.885173,-7.03298 0.80753,-0.59625 1.90379,-0.61034 2.7254,-0.0446 0.82161,0.56574 1.19955,1.60331 0.9296,2.56577 -0.0892,0.24648 -3.77706,13.48145 -17.730352,19.82663 0,3.47893 0,7.58933 0,11.99785 0.863865,0.39438 2.11506,0.93429 3.631517,1.4836 2.903805,1.06105 6.694949,2.07984 9.946175,2.07045 0.94837,0 1.80285,0.56809 2.16671,1.44369 0.36385,0.87795 0.16432,1.88266 -0.50471,2.55638 -0.20892,0.1831 -4.471903,4.52121 -11.648082,4.56346 -1.136169,0 -2.342762,-0.12911 -3.59161,-0.38968 0,4.71839 0,9.46026 0,13.91338 0.302822,0.15963 0.579822,0.3709 0.795789,0.66668 0.02817,0.0282 0.08216,0.0963 0.173711,0.1831 0.187797,0.17841 0.514094,0.45541 1.009407,0.74649 1.000017,0.58217 2.676102,1.2512 5.439059,1.25589 1.295797,0 2.349805,1.04932 2.349805,2.34981 0,1.29579 -1.054008,2.34746 -2.349805,2.34746 -0.03287,0 -0.06338,0 -0.09624,0 -3.277051,0 -5.655025,-0.80753 -7.32172,-1.7113 0,3.38503 0,6.48133 0,9.08466 -0.0023,1.45777 0.08216,2.77235 0.225356,3.9719 0.11972,0.43427 0.687805,2.66671 1.723034,4.84984 1.129127,2.57517 2.924932,4.28177 3.645602,4.06345 0.56339,0.0845 2.476567,-0.72302 5.039991,-4.85219 0.298127,-1.108 0.697194,-2.70428 1.176076,-4.68317 -0.488271,0.0587 -0.967152,0.0916 -1.422559,0.0916 -0.01174,0 -0.02348,0 -0.03287,0 -3.49067,-0.0187 -5.821694,-1.40847 -6.025924,-1.51881 v 0.005 c -1.112695,-0.65964 -1.478898,-2.10332 -0.826305,-3.21367 0.659636,-1.11739 2.103322,-1.48594 3.216017,-0.8263 0.0047,-0.005 0.01879,0.0117 0.178408,0.0869 0.164321,0.0775 0.422541,0.19014 0.75588,0.30751 0.664331,0.23475 1.617398,0.4648 2.699577,0.4648 0.816915,-0.002 1.711297,-0.13381 2.671403,-0.49766 0.75823,-3.2348 1.61975,-6.96021 2.53056,-10.94385 -2.948404,-1.02114 -7.847548,-3.49302 -9.751336,-9.29593 -0.220661,-0.72537 -0.07278,-1.51646 0.38733,-2.11037 0.460102,-0.5939 1.187814,-0.94133 1.939,-0.91316 0.0071,0 0.208924,0.009 0.617381,0.009 1.868577,0.0962 7.777125,-0.48123 10.150405,-2.42258 0.24648,-1.09861 0.49297,-2.19487 0.7371,-3.28174 0.90143,-4.01415 1.78172,-7.94615 2.59394,-11.59644 -1.01645,-0.0493 -2.23008,-0.12207 -3.52353,-0.23944 -3.5118,-0.35916 -7.443787,-0.84274 -10.253694,-2.40145 -0.870907,-0.50471 -1.321619,-1.49768 -1.12678,-2.48596 0.192492,-0.98828 0.983585,-1.73477 1.985949,-1.87092 0,-0.0188 2.6315,-0.35682 6.084605,-1.48829 3.28645,-1.05871 7.16445,-2.8686 9.9321,-5.4461 0.80283,-3.61743 1.28875,-5.8217 1.29345,-5.83578 0.277,-1.26293 1.53054,-2.06342 2.79347,-1.78172 0.18545,0.0423 0.33569,0.14084 0.50001,0.22066 0.26057,-0.31456 0.50236,-0.59156 0.79579,-0.95542 1.56341,-1.94604 3.52823,-4.63153 5.59634,-8.0283 -0.62443,0.0634 -1.23711,0.0962 -1.84041,0.0962 -0.0117,0 -0.0258,0 -0.0376,0 -8.24897,-0.0587 -14.20916,-5.1245 -14.40869,-5.24422 -0.7112,-0.58677 -1.01637,-1.53984 -0.76754,-2.42483 0.23709,-0.89203 0.98593,-1.56106 1.89205,-1.70191 15.26082,-2.41553 22.36423,-8.39685 23.73514,-9.65039 0.0211,-0.0188 0.0235,-0.0235 0.0423,-0.0399 1.31693,-4.04702 2.42962,-8.5025 3.27706,-13.33356 -7.60107,7.30998 -15.44628,9.11517 -20.78439,9.11517 -0.0493,0 -0.1033,0 -0.15494,0 -4.0165,-0.005 -6.5987,-0.9202 -6.7818,-0.98358 -0.98358,-0.35681 -1.61505,-1.31927 -1.53993,-2.36858 0.0681,-1.04227 0.81926,-1.91318 1.8451,-2.13619 12.84294,-2.66436 22.99335,-15.70684 27.08262,-22.13183 0.99298,-1.53993 1.6174,-2.63385 1.8944,-3.12916 -0.0986,-4.49338 -0.38968,-8.72819 -0.83804,-12.71183 -19.27498,28.4817 -42.204942,31.29865 -42.615747,31.31743 -0.08686,0.009 -0.171364,0.0141 -0.255872,0.0141 -0.976543,0 -1.866229,-0.60329 -2.20661,-1.53758 -0.373246,-1.02349 -0.0071,-2.16201 0.901423,-2.76296 21.901776,-14.53781 31.239966,-41.31995 34.420766,-53.7873 0.63617,-2.46483 1.02819,-4.31932 1.24181,-5.43436 -3.80053,-8.38042 -7.98136,-14.09179 -10.95559,-17.51673 0,0.21597 0.0117,0.43898 0.0117,0.6526 -0.0258,40.78707 -23.392411,63.3344 -23.584901,63.52924 -5.741882,5.76301 -12.321805,7.82407 -18.267916,7.82407 -0.03521,0 -0.07043,0 -0.105632,0 -11.967334,-0.0634 -21.458105,-7.52359 -21.652943,-7.62453 l -0.309886,-0.27957 C 52.81286,228.93846 32.695148,206.92635 27.828869,177.1958 c 0,-0.005 -0.0024,-0.007 -0.0024,-0.0117 -0.159627,-0.97419 -0.302822,-1.95543 -0.429584,-2.94606 -0.328645,-2.63385 -0.561043,-5.1245 -0.713628,-7.48369 -2.018813,2.3498 -4.659703,5.91794 -7.331109,10.95323 -0.697195,1.33101 -1.399085,2.75827 -2.093933,4.29116 z m 39.280007,158.78437 c 0.26761,1.26763 -0.542263,2.50944 -1.80989,2.78174 -1.645567,0.34273 -3.105686,0.47184 -4.333407,0.47184 -2.45544,-0.007 -3.96016,-0.47653 -4.150305,-0.53757 -1.232415,-0.40845 -1.90144,-1.73242 -1.492982,-2.96718 0.40611,-1.23007 1.737118,-1.90144 2.969533,-1.49299 0.0047,-0.0117 0.112674,0.0446 0.57278,0.12677 0.460102,0.0821 1.178423,0.17371 2.100974,0.17371 0.922551,-0.005 2.051679,-0.0915 3.361561,-0.36386 1.267626,-0.2723 2.509431,0.53757 2.781736,1.80754 z m 0.06103,-77.84638 c 0.0094,-0.005 1.967169,0.61268 5.206661,1.25119 3.244186,0.63616 7.702008,1.26998 12.476737,1.26998 4.774728,0 9.856974,-0.64086 14.368788,-2.46014 1.018797,-0.4155 2.190177,-0.0563 2.812254,0.85447 0.624423,0.91551 0.528177,2.1315 -0.232398,2.93433 -0.19484,0.15962 -7.267729,7.82407 -18.406416,7.8945 -0.01879,0 -0.03991,0 -0.05634,0 -5.539999,0 -11.93917,-2.07985 -18.408763,-7.73488 -0.840389,-0.73006 -1.054008,-1.94369 -0.507051,-2.91554 0.539916,-0.9695 1.683128,-1.42491 2.746526,-1.09391 z" /><path
       style="stroke-width:2.34745765"
       inkscape:connector-curvature="0"
       id="path18"
       d="m 140.09837,207.78552 c -0.0822,-1.0681 -1.03757,-11.64104 -7.61045,-26.99576 -0.16667,-0.38733 -0.44133,-0.68781 -0.76058,-0.9296 -5.98836,-12.88989 -12.82416,-19.77967 -15.14814,-21.86891 -0.53757,-7.59872 -1.92022,-15.75379 -4.35688,-24.41825 5.59399,-5.01417 11.32413,-12.84764 11.32413,-23.61543 0,-5.48836 -1.49768,-11.643389 -5.07755,-18.404069 -0.3662,-0.6925 -1.04462,-1.15259 -1.82397,-1.23476 -0.0704,-0.009 -0.64086,-0.0681 -1.59628,-0.0681 -3.00005,0.009 -9.89218,0.55166 -16.202147,5.43437 -5.575212,4.2935 -10.347593,11.948559 -11.387517,24.638919 -1.171381,-0.23005 -2.385017,-0.42959 -3.636212,-0.5986 l 7.655059,-21.944039 c 0.429585,-1.22302 -0.218313,-2.56108 -1.443685,-2.99067 -1.223026,-0.42488 -2.561077,0.22301 -2.985967,1.4437 l -7.091669,20.343059 5.450796,-29.113169 c 0.244136,-1.27467 -0.598601,-2.50238 -1.873271,-2.73949 -1.274669,-0.24178 -2.502389,0.59861 -2.739483,1.87328 l -6.101042,32.545149 c -0.03521,0 -0.06807,0 -0.103293,0.002 V 80.283291 c -0.0023,-1.29815 -1.054008,-2.34512 -2.352152,-2.34512 -1.29345,0 -2.347458,1.04697 -2.347458,2.34512 v 38.535859 l -6.03766,-32.218849 c -0.237094,-1.27468 -1.462467,-2.11272 -2.739484,-1.87328 -1.269974,0.23709 -2.112711,1.46247 -1.87327,2.74184 l 5.455491,29.110809 -7.09167,-20.340719 c -0.429585,-1.22537 -1.765288,-1.87326 -2.990661,-1.44838 -1.225372,0.42958 -1.870924,1.76529 -1.443686,2.99067 l 7.948491,22.789119 c -1.213636,0.24178 -2.448398,0.52582 -3.699593,0.83804 -0.854474,-13.33591 -5.723102,-21.31257 -11.453246,-25.725799 -6.312313,-4.88035 -13.199753,-5.42497 -16.199804,-5.42966 -0.95072,0 -1.5235,0.0563 -1.596271,0.0658 -0.772314,0.0822 -1.462466,0.54462 -1.823975,1.23476 -3.586915,6.76068 -5.084593,12.913369 -5.084593,18.404069 0,10.48845 5.439059,18.19045 10.892203,23.21401 -2.032898,3.47424 -5.692584,11.85701 -5.683194,27.01924 0,0.005 0,0.0117 0,0.0188 -2.291119,2.06811 -8.413288,8.40859 -13.788967,20.55434 -0.0023,0.009 -0.01173,0.0164 -0.01643,0.0258 -0.03756,0.0845 -0.06574,0.16432 -0.103293,0.24883 -0.995322,2.26999 -1.962476,4.73482 -2.8732892,7.41796 -3.924949,11.21381 -4.57989,18.559 -4.638575,19.34305 -0.936636,6.12452 -1.5235,12.9298 -1.629136,20.44401 0,0.0235 -0.0094,0.0446 -0.0094,0.0681 l 0.0047,0.15259 c -0.0094,0.77231 -0.03052,1.52584 -0.03052,2.31459 0,3.83105 0.19484,7.49074 0.537568,10.99784 v 0.0141 c 0,0.002 0,0.005 0,0.007 0.377941,3.87096 0.936636,7.54942 1.64322,11.01662 0.07043,2.9085 0.845085,38.02881 4.6033652,57.62538 l -9.5212882,9.97435 c -0.892035,0.93429 -0.859169,2.42258 0.07747,3.31931 0.455407,0.43662 1.037577,0.64789 1.619746,0.64789 0.61973,0 1.239458,-0.24413 1.701907,-0.72771 l 5.016517,-5.25126 -2.295814,12.26077 c -0.23944,1.27232 0.600949,2.4977 1.875619,2.73948 0.145543,0.0282 0.291085,0.0422 0.434279,0.0422 1.1103482,0 2.0962802,-0.7864 2.3052042,-1.91552 l 1.737119,-9.27716 1.713644,9.15744 c 0.213618,1.12912 1.201898,1.91552 2.307551,1.91552 0.143195,0 0.28639,-0.0141 0.431931,-0.0422 1.274671,-0.24178 2.115061,-1.46951 1.87562,-2.73948 l -2.298161,-12.26547 5.021211,5.25596 c 0.457755,0.48593 1.075135,0.73006 1.694864,0.73006 0.58217,0 1.166687,-0.21597 1.619746,-0.65024 0.211271,-0.20189 0.363856,-0.44133 0.483577,-0.69016 2.530559,11.1293 4.847499,21.10599 5.983669,25.43236 -0.976543,2.84981 -4.584585,13.85001 -4.617449,22.96988 0.0047,2.16905 0.204229,4.25828 0.774661,6.18085 1.48594,4.26298 5.394457,6.33579 9.932092,7.27477 -0.01174,0.36386 -0.03286,0.73241 -0.03286,1.09157 0,2.1667 0.204229,4.25594 0.774662,6.17616 2.164355,6.22312 9.464948,7.84521 16.404032,7.95084 4.260636,-0.009 8.622213,-0.74884 12.241992,-2.23712 1.974212,-0.82866 3.809924,-1.91553 5.204314,-3.35687 1.399084,1.43664 3.232449,2.52821 5.206661,3.35687 3.622126,1.48828 7.979008,2.22773 12.244339,2.23712 6.943778,-0.10568 14.237325,-1.72538 16.411075,-7.95084 0.55869,-1.92726 0.76996,-4.00946 0.76996,-6.18085 -0.0305,-9.12223 -3.64325,-20.12711 -4.6151,-22.97223 2.71836,-10.33116 12.20208,-53.05489 15.09885,-66.13727 0.0493,-0.0423 0.11502,-0.0587 0.16197,-0.10563 0.24657,-0.22771 23.96764,-22.65767 23.97937,-65.87671 0.007,-8.48137 -0.66667,-16.11999 -1.79346,-22.991 z M 44.681267,372.12867 v 0.005 c 0.359161,-1.24885 1.662,-1.96483 2.9085,-1.60567 1.2465,0.35917 1.960127,1.65731 1.600965,2.90381 0.01879,0.0141 -2.295813,8.07291 -2.274686,13.69506 0,0.87091 0.05164,1.66435 0.164322,2.32634 0.208924,1.27935 -0.657288,2.48596 -1.936652,2.69253 -0.131458,0.0235 -0.260568,0.0328 -0.387331,0.0328 -1.126779,0 -2.119754,-0.81927 -2.312245,-1.96717 -0.159627,-0.99767 -0.223009,-2.0282 -0.223009,-3.08456 0.02347,-6.69495 2.446051,-14.88993 2.460136,-14.99791 z m -13.906339,-1.4296 c 0.02348,-6.69964 2.448398,-14.89462 2.462483,-15.0026 0.359161,-1.24415 1.662,-1.96482 2.906153,-1.60566 1.244152,0.35916 1.962474,1.662 1.603313,2.90616 0.01409,0.0141 -2.298161,8.07524 -2.279381,13.69975 0,0.86622 0.05164,1.65731 0.164322,2.31694 0.208924,1.28406 -0.657288,2.49066 -1.934305,2.69724 -0.131458,0.0235 -0.260568,0.0328 -0.389678,0.0328 -1.129127,0 -2.119754,-0.81926 -2.307551,-1.96717 -0.161974,-0.99532 -0.220661,-2.02586 -0.225356,-3.07751 z m 5.061119,-234.49223 c 4.500076,3.34983 8.288872,4.96722 8.408593,5.02356 0.295779,0.12442 0.603296,0.1831 0.903771,0.1831 0.917856,0 1.79111,-0.53991 2.169051,-1.43664 0.500008,-1.19486 -0.05869,-2.57046 -1.253543,-3.07282 v -0.005 c 0,0 -1.192508,-0.49531 -3.105686,-1.59627 -5.83578,-3.34748 -17.073059,-11.72321 -16.995593,-25.34315 0,-4.33106 1.089221,-9.30298 3.920255,-15.014349 2.492999,0.0118 8.227838,0.5634 13.204448,4.44609 5.035297,3.939029 9.74195,11.328829 9.779509,26.394809 0,2.01647 -0.08686,4.16674 -0.269958,6.46256 -0.100942,1.2911 0.863864,2.42022 2.154966,2.52821 1.291102,0.10094 2.420229,-0.86387 2.525864,-2.15497 0.176059,-2.25591 0.265262,-4.37801 0.277,-6.40621 5.241873,-1.38265 10.089373,-2.06811 14.563627,-2.28643 0.04225,0.002 0.07747,0.0235 0.11972,0.0235 0.05634,0 0.105633,-0.0282 0.161975,-0.0329 0.943678,-0.0423 1.896746,-0.0916 2.802864,-0.0916 4.450779,0 8.460238,0.49532 12.054195,1.24885 -0.0023,0.23945 -0.01408,0.4648 -0.01408,0.70659 0,2.15027 0.09155,4.42261 0.291085,6.84284 0.105633,1.2911 1.23711,2.25356 2.530559,2.14792 1.295797,-0.11033 2.25356,-1.24415 2.147924,-2.53525 -0.192491,-2.28877 -0.274653,-4.4367 -0.274653,-6.45551 0.03991,-15.06365 4.74656,-22.44874 9.7842,-26.394819 4.97896,-3.8827 10.71145,-4.43435 13.2068,-4.44139 2.82869,5.706659 3.92025,10.676229 3.92025,15.007289 0,9.12692 -4.87801,15.77728 -9.97904,20.31491 -2.53995,2.24887 -5.10572,3.92495 -7.01655,5.02825 -1.915524,1.10331 -3.105685,1.59158 -3.105685,1.60332 -1.197203,0.50235 -1.755898,1.87796 -1.253542,3.07282 0.377941,0.89673 1.248847,1.43664 2.16905,1.43664 0.302822,0 0.612687,-0.0587 0.910817,-0.18544 h -0.005 c 0.11267,-0.0493 3.49301,-1.48595 7.6574,-4.46487 2.78174,10.50722 3.92965,20.15762 3.92965,28.90659 0,3.41321 -0.22301,6.63861 -0.53757,9.77951 -0.0235,0.0305 -0.0563,0.047 -0.0775,0.0798 0,0 0,0.005 -0.0915,0.11972 -0.74884,0.88499 -4.9414,5.81465 -16.875873,5.84987 -0.84039,0 -1.720686,-0.0235 -2.64089,-0.0775 -1.298143,-0.0728 -2.403796,0.9202 -2.478915,2.216 -0.07043,1.2911 0.920203,2.40379 2.216,2.47187 0.995322,0.0563 1.962475,0.0869 2.901457,0.0869 0.0493,0 0.09624,0 0.143195,0 7.565856,0 12.699746,-1.91318 15.974446,-3.88504 -0.46479,2.68079 -1.0141,5.2583 -1.65495,7.70435 -0.0986,0.0188 -0.19484,0.002 -0.29109,0.0352 l -0.0211,-0.0141 c -0.19719,0.0282 -0.60799,0.0681 -1.28171,0.0681 -1.14087,0 -3.04231,-0.11737 -5.98132,-0.56574 -1.28406,-0.19483 -2.483614,0.68546 -2.6808,1.96718 -0.19484,1.28171 0.685457,2.47656 1.96717,2.6761 3.11977,0.47888 5.24657,0.61973 6.69495,0.61973 0.0751,0 0.12441,-0.005 0.19718,-0.005 -0.67137,2.08923 -1.3803,4.09396 -2.13618,5.98132 -4.42496,-3.70194 -16.462722,-12.30538 -32.829195,-12.30538 -16.380559,0 -28.136627,8.61987 -32.42778,12.31477 -0.908466,-1.92727 -1.78172,-3.94373 -2.610373,-6.02827 1.331009,-0.0681 3.042305,-0.23475 5.28178,-0.57983 1.281712,-0.19249 2.164356,-1.39204 1.967169,-2.6714 -0.197186,-1.28171 -1.392042,-2.16436 -2.676101,-1.96482 -2.943712,0.44836 -4.8475,0.56339 -5.986017,0.56339 -0.126763,0 -0.199534,-0.005 -0.307517,-0.009 -0.805178,-2.37328 -1.5235,-4.82872 -2.143229,-7.3452 3.288788,1.80754 8.183237,3.44372 15.176314,3.44372 0.0493,0 0.0939,0 0.143195,0 0.934287,0 1.906135,-0.0282 2.9085,-0.0869 1.291102,-0.0728 2.286423,-1.18077 2.211305,-2.47422 -0.07278,-1.29345 -1.180772,-2.28642 -2.474221,-2.21365 -0.929593,0.0516 -1.807543,0.0775 -2.645584,0.0775 -6.83345,-0.005 -11.103475,-1.65027 -13.671594,-3.18785 -1.281711,-0.77231 -2.145576,-1.5235 -2.666711,-2.05872 -0.171365,-0.17371 -0.251178,-0.277 -0.352119,-0.39437 -0.112678,-0.73241 -0.244136,-1.46012 -0.335686,-2.19957 -0.629119,-5.03999 -0.889687,-9.51659 -0.889687,-13.46736 0,-9.70909 1.563407,-16.27962 3.06578,-20.37124 0.565737,-1.54228 1.126779,-2.73479 1.596271,-3.61039 z m 49.641685,78.84406 c -0.01408,-1.54698 0.246483,-3.14559 0.762924,-4.04937 0.570431,-0.8756 0.875602,-1.2418 2.431966,-1.31927 0.237093,0 0.492965,0.0188 0.795788,0.0564 2.420228,0.51644 2.014118,0.74884 2.157313,1.23711 0.06572,0.71597 -0.828652,2.58924 -2.471872,3.99067 -1.042272,0.93899 -2.321636,1.68548 -3.572831,2.08689 -0.06103,-0.5986 -0.105632,-1.2864 -0.103293,-2.00238 z m -25.13188,2.00238 c -1.25589,-0.40141 -2.535254,-1.14791 -3.577526,-2.08454 -1.640873,-1.39909 -2.532907,-3.27705 -2.46483,-3.99068 0.140847,-0.48827 -0.265264,-0.72302 2.147923,-1.23476 0.302823,-0.0423 0.56339,-0.061 0.800484,-0.061 1.558711,0.0821 1.866228,0.44366 2.43666,1.32161 0.516441,0.90143 0.781704,2.50474 0.767618,4.04937 -0.0023,0.71363 -0.0493,1.39908 -0.110334,2.00003 z M 27.399284,174.2427 c 0.124416,0.99063 0.269958,1.97186 0.429585,2.94606 0,0.005 0,0.007 0.0024,0.0117 4.866279,29.73055 24.983991,51.74266 25.101363,51.91637 l 0.309866,0.27935 c 0.194838,0.10094 9.683262,7.56116 21.652948,7.62454 0.03521,0 0.07043,0 0.105633,0 5.94611,0 12.526034,-2.06107 18.267915,-7.82408 0.19249,-0.1925 23.559086,-22.74217 23.584906,-63.52925 0,-0.21362 -0.0117,-0.43662 -0.0117,-0.65259 2.97423,3.42494 7.15505,9.13865 10.95558,17.51673 -0.21596,1.11504 -0.60564,2.96953 -1.2418,5.43436 -3.18081,12.46735 -12.51899,39.24714 -34.420772,53.7873 -0.908466,0.60094 -1.274669,1.73946 -0.901423,2.76295 0.342728,0.93429 1.230067,1.53759 2.206609,1.53759 0.08451,0 0.169017,-0.005 0.255873,-0.0141 0.410805,-0.0188 23.340773,-2.83573 42.615743,-31.31743 0.44837,3.98128 0.73945,8.2161 0.83804,12.71148 -0.27465,0.49531 -0.90142,1.59158 -1.89439,3.12916 -4.08928,6.42265 -14.23968,19.46747 -27.08262,22.13183 -1.02819,0.22301 -1.77703,1.09392 -1.8451,2.13619 -0.0728,1.04931 0.55634,2.00942 1.53993,2.36858 0.1831,0.0634 2.7653,0.97889 6.7818,0.98359 0.0516,0 0.10563,0 0.15494,0 5.33577,0 13.18097,-1.8052 20.78438,-9.11518 -0.84508,4.83107 -1.96012,9.28654 -3.27705,13.33356 -0.0188,0.0164 -0.0211,0.0211 -0.0423,0.0399 -1.37091,1.25354 -8.47432,7.23486 -23.73514,9.6504 -0.90612,0.14084 -1.65496,0.80987 -1.89205,1.7019 -0.24648,0.88499 0.0563,1.83806 0.76762,2.42493 0.19953,0.12207 6.15973,5.18553 14.40869,5.24422 0.0117,0 0.0258,0 0.0376,0 0.6033,0 1.21833,-0.0329 1.84041,-0.0962 -2.06811,3.39677 -4.03293,6.08226 -5.59634,8.0283 -0.29343,0.36386 -0.53522,0.64086 -0.79579,0.95542 -0.16432,-0.0798 -0.31456,-0.17841 -0.50001,-0.22066 -1.26293,-0.2817 -2.51647,0.51878 -2.79347,1.78172 -0.005,0.0141 -0.49062,2.21834 -1.29345,5.83578 -2.77,2.57985 -6.64565,4.38739 -9.93209,5.4461 -3.453112,1.12912 -6.084612,1.46951 -6.084612,1.48829 -1.002364,0.13615 -1.793458,0.88264 -1.985949,1.87092 -0.19484,0.98828 0.255873,1.98125 1.12678,2.48596 2.809906,1.55871 6.741901,2.04228 10.253691,2.40145 1.29345,0.11737 2.50709,0.19014 3.52354,0.23944 -0.81457,3.65264 -1.69487,7.58228 -2.59394,11.59643 -0.24414,1.08922 -0.49062,2.18549 -0.73711,3.28175 -2.37562,1.94135 -8.281826,2.51882 -10.150402,2.42258 -0.408458,0 -0.610338,-0.009 -0.617381,-0.009 -0.751187,-0.0305 -1.478898,0.31691 -1.939,0.91316 -0.460102,0.59625 -0.607992,1.38735 -0.387331,2.11036 1.906136,5.80292 6.802933,8.27479 9.751334,9.29594 -0.91081,3.98363 -1.77233,7.70905 -2.53055,10.94384 -0.957768,0.36386 -1.854496,0.49532 -2.671411,0.49766 -1.082178,0 -2.035245,-0.23239 -2.699576,-0.46479 -0.335687,-0.11737 -0.591559,-0.23005 -0.755882,-0.30752 -0.159627,-0.0751 -0.173712,-0.0915 -0.178407,-0.0869 -1.112695,-0.65963 -2.55638,-0.29108 -3.216016,0.82631 -0.652594,1.11269 -0.28639,2.55403 0.826305,3.21367 v -0.005 c 0.204229,0.11267 2.535254,1.50238 6.025924,1.51881 0.0094,0 0.02112,0 0.03287,0 0.455406,0 0.934288,-0.0328 1.422559,-0.0916 -0.478882,1.97891 -0.87795,3.57518 -1.176076,4.68318 -2.565772,4.13152 -4.476603,4.93905 -5.039992,4.8522 -0.72067,0.21831 -2.514127,-1.49064 -3.645601,-4.06345 -1.035229,-2.18548 -1.605662,-4.41792 -1.723034,-4.84985 -0.143195,-1.2019 -0.227704,-2.51413 -0.225356,-3.9719 0,-2.60333 0,-5.69963 0,-9.08466 1.666695,0.90377 4.044669,1.71129 7.321719,1.71129 0.03287,0 0.06339,0 0.09625,0 1.295797,0 2.349805,-1.05166 2.349805,-2.34746 0,-1.30049 -1.054008,-2.3498 -2.349805,-2.3498 -2.765305,-0.005 -4.44139,-0.67372 -5.439059,-1.25589 -0.495313,-0.29109 -0.82161,-0.56809 -1.009406,-0.74649 -0.09155,-0.0869 -0.14789,-0.15493 -0.173712,-0.1831 -0.215967,-0.29578 -0.492967,-0.50705 -0.795788,-0.66668 0,-4.45078 0,-9.19499 0,-13.91338 1.248847,0.26057 2.45544,0.38968 3.591609,0.38968 7.176179,-0.0446 11.43916,-4.38036 11.64808,-4.56346 0.66903,-0.67372 0.86856,-1.67843 0.50471,-2.55638 -0.36386,-0.87561 -1.21833,-1.44369 -2.16671,-1.44369 -3.253571,0.009 -7.042368,-1.0094 -9.946173,-2.07045 -1.516457,-0.54696 -2.767652,-1.08922 -3.631516,-1.4836 0,-4.40852 0,-8.51892 0,-11.99785 13.950939,-6.34518 17.641139,-19.58015 17.730349,-19.82663 0.26995,-0.96246 -0.10564,-2.00003 -0.9296,-2.56577 -0.82395,-0.56574 -1.91787,-0.55165 -2.72539,0.0446 -4.335758,3.19489 -8.657427,5.51887 -11.885182,7.03298 -2.840423,1.33101 -4.767686,2.01177 -5.185533,2.16201 -1.000018,0.23709 -1.969518,0.42958 -2.91789,0.6033 -0.241789,0.0423 -0.488271,0.0845 -0.748839,0.12911 -0.326297,0.0516 -0.699543,0.10329 -1.054009,0.15493 -0.321601,0.0493 -0.640855,0.0962 -0.955414,0.1385 -0.556348,0.0728 -1.14556,0.14085 -1.748856,0.20188 -0.34273,0.0329 -0.673721,0.0563 -1.004713,0.0822 -0.453059,0.0399 -0.903771,0.0775 -1.373262,0.10329 -0.880297,0.0469 -1.734771,0.0704 -2.542297,0.0704 -0.438974,0 -0.831,-0.0211 -1.248847,-0.0329 -2.671407,-0.0822 -5.03295,-0.39202 -6.75833,-0.71597 -2.000034,-0.36855 -3.103339,-0.72771 -3.110382,-0.71832 -0.01878,-0.007 -0.03756,0.002 -0.05399,-0.005 -0.333339,-0.0962 -0.678414,-0.12207 -1.014101,-0.0681 -0.02112,0.005 -0.03991,0.0141 -0.06103,0.0164 -0.328644,0.061 -0.645551,0.1831 -0.924899,0.38028 -0.0071,0.005 -0.01174,0.0118 -0.01878,0.0188 -0.0047,0.002 -0.01174,0.002 -0.01878,0.007 -0.01408,0.0117 -0.01877,0.0282 -0.03287,0.0399 -0.277,0.21596 -0.504703,0.47888 -0.661983,0.78405 -0.007,0.0117 -0.0094,0.0282 -0.01643,0.0423 -0.152585,0.31221 -0.239441,0.65494 -0.241788,1.01645 0,0.005 -0.0023,0.007 -0.0023,0.0117 v 1.89674 0 c 0,3.30757 0,10.64337 0,19.37357 -1.129127,2.10097 -3.525882,3.84983 -5.831085,4.96487 -1.21833,0.6033 -2.375627,1.03288 -3.208974,1.31458 -0.838043,0.277 -1.302839,0.37794 -1.302839,0.38263 -0.831,0.19954 -1.483593,0.82631 -1.715992,1.64322 -0.232398,0.82631 -0.0047,1.69721 0.600949,2.30286 2.089238,1.88501 4.720738,2.15496 7.363975,2.55873 1.497678,0.17371 2.941364,0.25587 4.096313,0.29812 0,10.303 0,20.71632 0,27.88545 -0.77466,0.25822 -1.488288,0.35682 -2.089237,0.35916 -0.558695,0 -1.016449,-0.0728 -1.316923,-0.13615 -0.300475,-0.0634 -0.340382,-0.10329 -0.345077,-0.0916 -1.213635,-0.46245 -2.572813,0.14554 -3.035262,1.35448 -0.460102,1.21364 0.145542,2.57282 1.359178,3.03292 h -0.0047 c 0.185449,0.0634 1.436644,0.53052 3.340431,0.53523 0.0094,0 0.02112,0 0.03287,0 0.553999,0 1.176075,-0.0658 1.823973,-0.17372 -0.366203,3.06108 -1.131474,5.30995 -2.025855,6.77712 -1.277017,2.07044 -2.561077,2.6174 -3.61978,2.62679 -1.490635,0.0399 -3.62917,-1.36387 -4.664398,-5.0658 -1.037577,-3.80759 -3.570483,-14.70448 -6.317009,-26.79624 1.931958,0.54696 3.734805,0.7864 5.270043,0.7864 3.35217,-0.005 5.504788,-0.89908 5.704322,-0.98124 1.192509,-0.5047 1.751204,-1.88266 1.2465,-3.07517 -0.509398,-1.19251 -1.880314,-1.7512 -3.07517,-1.2418 l -0.0047,-0.005 c 0,0 -0.0094,0.005 -0.164322,0.0587 -0.481229,0.15728 -1.833364,0.54696 -3.706635,0.54227 -1.769983,0 -4.011805,-0.38029 -6.511848,-1.5681 -0.511828,-2.27243 -1.025921,-4.55182 -1.532972,-6.80772 -0.687805,-3.06109 -1.361525,-6.07522 -2.004729,-8.95086 1.469509,0.22066 2.861551,0.331 4.152653,0.331 7.117491,0 11.176245,-2.87564 11.43916,-3.06813 0.819262,-0.59626 1.161992,-1.65731 0.847433,-2.61976 -0.309866,-0.96481 -1.215984,-1.6221 -2.227738,-1.6221 -6.230152,-0.007 -10.619898,-1.87562 -13.497881,-3.71133 -1.438991,-0.92255 -2.490652,-1.83571 -3.162025,-2.50004 -0.281695,-0.27465 -0.483576,-0.49531 -0.636161,-0.66903 -1.152602,-5.19961 -1.887356,-8.53535 -1.889703,-8.55178 -0.281695,-1.26763 -1.535238,-2.06342 -2.79817,-1.78877 -0.187797,0.0422 -0.340381,0.1432 -0.504703,0.22536 -1.659653,-1.97656 -3.92495,-4.96722 -6.36161,-8.96494 0.582169,0.054 1.159644,0.0845 1.723034,0.0845 8.246618,-0.061 14.213855,-5.13154 14.411042,-5.24657 0.711279,-0.58921 1.016449,-1.54228 0.774661,-2.42727 -0.246483,-0.88969 -0.990628,-1.56106 -1.901441,-1.70191 -8.718458,-1.37795 -14.77255,-3.92729 -18.620034,-6.08461 -1.924915,-1.08452 -3.298177,-2.06576 -4.173779,-2.76295 -0.349772,-0.27935 -0.600949,-0.50001 -0.795788,-0.67372 -1.333356,-4.07989 -2.50239,-8.52597 -3.3592122,-13.40399 7.5564662,7.21374 15.3500252,9.01424 20.6623212,9.01659 0.05869,0 0.115026,-0.002 0.173712,-0.002 4.018848,0 6.598704,-0.91786 6.781805,-0.97889 0.983585,-0.36151 1.617399,-1.32162 1.544627,-2.36859 -0.07277,-1.04698 -0.826305,-1.91554 -1.849796,-2.13855 -8.549441,-1.81224 -15.929847,-8.13159 -21.094254,-14.13404 -2.584551,-2.98832 -4.612754,-5.87334 -5.9836692,-7.99779 -0.884991,-1.37092 -1.453077,-2.35215 -1.769983,-2.9132 0.08451,-4.56345 0.352118,-8.84052 0.769966,-12.84293 19.2608892,28.40188 42.1462532,31.21648 42.5547102,31.23057 0.0892,0.009 0.17606,0.0141 0.265264,0.0141 0.976541,0 1.861533,-0.60564 2.201915,-1.53758 0.373245,-1.02115 0,-2.15966 -0.901425,-2.75827 -14.5871,-9.71612 -23.624812,-24.80089 -28.951193,-37.53115 -2.664365,-6.35691 -4.401483,-12.11053 -5.469577,-16.25379 -0.755881,-2.92494 -1.161991,-4.99539 -1.340398,-5.97663 0.6925,-1.53054 1.396738,-2.9578 2.098628,-4.28411 2.671406,-5.0353 5.312296,-8.60108 7.331109,-10.95324 0.14789,2.35216 0.380288,4.84281 0.708932,7.47666 z M 79.91191,389.1454 c 0.213618,1.27466 -0.645551,2.49065 -1.924915,2.70426 -0.133805,0.0212 -0.262916,0.0328 -0.392026,0.0328 -1.124432,0 -2.119754,-0.81221 -2.312245,-1.95778 -0.169017,-1.0094 -0.223009,-2.04463 -0.230051,-3.09394 0.02583,-6.69965 2.448398,-14.89463 2.467178,-15.00026 0.359161,-1.24415 1.659653,-1.96012 2.903805,-1.60097 1.244153,0.35447 1.960127,1.65731 1.605661,2.90146 0.01408,0.0164 -2.300508,8.07291 -2.281729,13.69742 -0.0023,0.87325 0.05164,1.65965 0.164322,2.31694 z M 15.647912,280.5168 c -1.277017,3.57048 -2.305203,8.06351 -3.112728,12.465 -0.62912,-6.40387 -1.093916,-13.10117 -1.431949,-19.14822 -0.06103,-1.06339 -0.115025,-2.10801 -0.169018,-3.12916 1.94839,4.71135 3.805229,8.19498 4.713695,9.81238 z m 57.036176,76.05058 c 0.01879,0.0164 -2.293466,8.07056 -2.274686,13.69976 0,0.34978 0.01408,0.67842 0.03287,1.00002 -1.354484,-2.74887 -2.807559,-5.31229 -4.138568,-7.48605 0.725365,-4.57989 1.861534,-8.4438 1.875619,-8.51422 0.35916,-1.24416 1.662,-1.96248 2.906152,-1.60332 1.239457,0.35682 1.95778,1.662 1.598618,2.90381 z M 62.580631,312.36241 c 0,-8.0823 0,-15.04017 0,-18.81253 2.171398,0.44132 5.399152,0.89908 9.448517,0.90377 0,14.50494 0,34.02405 0,44.99607 0,1.35448 0.06572,2.62446 0.178407,3.82401 -1.488289,2.14088 -5.831085,8.46258 -9.061187,15.61998 -0.295779,-0.43663 -0.54461,-0.79345 -0.746492,-1.08453 0.115025,-1.19955 0.178407,-2.46483 0.180755,-3.81931 0,-7.69262 0,-19.59423 0,-31.0193 0,-0.007 0.0023,-0.0118 0.0023,-0.0188 v -10.5706 c 0,-0.005 -0.0023,-0.0117 -0.0023,-0.0188 z m 14.889924,-3.101 c -0.32395,-0.29108 -0.570433,-0.58921 -0.746492,-0.8263 0,-4.94844 0,-9.79829 0,-14.19038 1.877966,-0.15728 3.86861,-0.4155 5.976626,-0.81457 v 2.37328 c 0,4.05641 0,10.1058 0,16.94395 -0.0446,-1.25589 -1.065744,-2.2653 -2.32633,-2.2653 -1.232414,-0.005 -2.162008,-0.55165 -2.903804,-1.22068 z m 5.133889,43.63689 c -1.063398,-0.0141 -2.345111,-0.55869 -3.622127,-2.6268 -1.248848,-2.05403 -2.262949,-5.60338 -2.258254,-10.82178 0,-6.371 0,-15.62468 0,-25.10606 1.018796,0.46714 2.22539,0.79579 3.650296,0.831 1.260586,0 2.284076,-1.0141 2.32633,-2.26999 0,4.99774 0,10.40393 0,15.74674 -0.01643,-0.007 -0.04695,-0.0188 -0.05164,-0.0235 -0.915509,-0.72302 -2.24417,-0.66903 -3.093949,0.16667 -0.927245,0.90612 -0.938983,2.39675 -0.03521,3.32165 v -0.005 c 0.366204,0.39672 1.342746,1.06574 3.180805,1.36152 0,7.30059 0,14.19038 0,19.41582 -0.03287,0 -0.06572,0.009 -0.09624,0.009 z M 27.368768,296.65322 c 0.04695,0.047 0.11033,0.061 0.161974,0.10329 0.316907,1.4296 0.71128,3.21837 1.169034,5.27709 v 0.002 l 0.25822,1.16434 c 0.42489,1.90848 0.889687,4.00945 1.39439,6.26771 l 0.518788,2.33102 c 0,0.002 0.0023,0.005 0.0023,0.009 0.375593,1.68313 0.765271,3.42964 1.166686,5.22544 -0.323949,-0.0634 -0.638508,-0.14789 -0.906118,-0.24413 -0.509402,-0.17374 -0.75119,-0.32163 -0.755885,-0.30989 -0.354466,-0.19014 -0.734754,-0.24883 -1.110347,-0.24883 -0.56339,-2.49535 -1.129127,-5.00947 -1.687822,-7.49074 -1.253543,-5.58695 -2.460136,-11.00018 -3.514144,-15.72796 1.950737,2.35919 3.244186,3.58926 3.302873,3.64091 z m 5.544694,25.16709 c 0.01878,0 0.03991,0 0.06103,0 0.0446,0 0.09155,-0.0164 0.136153,-0.0164 2.406143,10.72788 5.035296,22.33136 7.028287,30.84559 -1.279364,-0.5493 -2.685491,-2.03524 -3.464847,-4.82402 -1.028187,-3.75828 -3.509449,-14.42982 -6.21372,-26.33848 0.699542,0.1831 1.528194,0.32395 2.453093,0.33334 z M 15.089217,309.31775 c -0.02583,-0.0282 -0.05868,-0.0352 -0.08686,-0.0587 0.190145,-1.86153 0.596255,-5.58225 1.251195,-9.94852 0.511746,-3.4625 1.190161,-7.2959 2.002382,-10.803 1.823974,8.2114 4.502423,20.22569 7.061152,31.52635 z" /><path
       style="fill:#ffffff;stroke-width:2.34745765"
       inkscape:connector-curvature="0"
       id="path20"
       d="m 43.068563,167.39986 c 0,-2.5376 1.791111,-4.65266 4.17378,-5.16675 -1.711297,-0.56339 -3.765322,-0.91316 -6.260669,-0.91316 0,0 -0.300475,4.32401 2.305203,7.50482 -0.126763,-0.45541 -0.218314,-0.92725 -0.218314,-1.42491 z" /><path
       style="fill:#ffffff;stroke-width:2.34745765"
       inkscape:connector-curvature="0"
       id="path22"
       d="m 92.402731,167.39986 c 0,-0.52114 0.09859,-1.01175 0.239441,-1.48829 -2.349805,2.79348 -2.577508,5.82639 -2.577508,5.82639 1.490636,0.27465 2.826339,0.39907 4.02589,0.39907 0.4155,0 0.779356,-0.0446 1.159644,-0.0728 -1.685475,-0.88264 -2.847467,-2.62915 -2.847467,-4.6644 z" /><path
       style="fill:#ffffff;stroke-width:2.34745765"
       inkscape:connector-curvature="0"
       id="path24"
       d="m 53.646208,167.39986 c 0,2.05872 -1.187814,3.82401 -2.906153,4.69726 0.225356,0.009 0.427238,0.0423 0.661984,0.0423 1.19955,0 2.535254,-0.12441 4.025888,-0.39907 0,0 -0.178406,-2.36623 -1.831016,-4.8428 0.01408,0.16667 0.0493,0.33099 0.0493,0.50236 z" /><path
       style="fill:#ffffff;stroke-width:2.34745765"
       inkscape:connector-curvature="0"
       id="path26"
       d="m 31.169301,160.19082 c 0,3.95312 0.260568,8.42737 0.889686,13.46736 0.09155,0.73945 0.220661,1.46716 0.335687,2.19957 0.100941,0.11737 0.183102,0.22066 0.352119,0.39437 0.521135,0.53522 1.382652,1.28641 2.666711,2.05872 2.565771,1.53759 6.838144,3.18315 13.671593,3.18785 0.838043,0 1.715992,-0.0235 2.645585,-0.0775 1.293449,-0.0728 2.401449,0.9202 2.474221,2.21365 0.07276,1.2911 -0.920204,2.40145 -2.211305,2.47422 -1.002366,0.0563 -1.971866,0.0869 -2.908501,0.0869 -0.0493,0 -0.0939,0 -0.143195,0 -6.993076,0 -11.887525,-1.63852 -15.176313,-3.44372 0.619729,2.51882 1.338051,4.97192 2.143229,7.3452 0.107983,0.002 0.180754,0.009 0.307517,0.009 1.136169,0 3.039957,-0.11503 5.986017,-0.56339 1.281711,-0.19719 2.476567,0.68545 2.676101,1.96482 0.197187,1.27702 -0.685457,2.47891 -1.967169,2.67141 -2.239475,0.34507 -3.948424,0.50939 -5.28178,0.57982 0.828653,2.08454 1.701907,4.10101 2.610373,6.02827 4.2935,-3.6949 16.047221,-12.31476 32.427779,-12.31476 16.368821,0 28.406584,8.60578 32.829194,12.30537 0.75588,-1.8897 1.46481,-3.89209 2.13619,-5.98132 -0.0728,0 -0.12207,0.005 -0.19719,0.005 -1.44603,0 -3.57283,-0.14085 -6.69495,-0.61973 -1.281711,-0.19719 -2.162007,-1.39204 -1.967169,-2.6761 0.197187,-1.28172 1.396739,-2.16201 2.680799,-1.96717 2.93902,0.44836 4.84045,0.56573 5.98132,0.56573 0.67372,0 1.08452,-0.0399 1.28171,-0.0681 l 0.0211,0.0141 c 0.0962,-0.0329 0.19249,-0.0164 0.29109,-0.0352 0.64085,-2.44605 1.19016,-5.02355 1.65495,-7.70435 -3.2747,1.97186 -8.40859,3.88504 -15.974444,3.88504 -0.04695,0 -0.0939,0 -0.143195,0 -0.938982,0 -1.908482,-0.0305 -2.901457,-0.0869 -1.298145,-0.0681 -2.288771,-1.18077 -2.216,-2.47187 0.07278,-1.2958 1.180771,-2.28877 2.478916,-2.216 0.920203,0.054 1.8005,0.0775 2.640888,0.0775 11.934472,-0.0352 16.127032,-4.96253 16.875872,-5.84987 0.0915,-0.11502 0.0915,-0.11971 0.0915,-0.11971 0.0211,-0.0329 0.054,-0.0493 0.0775,-0.0798 0.31456,-3.13856 0.53757,-6.36631 0.53757,-9.77951 0,-8.74898 -1.14791,-18.40172 -3.92964,-28.9066 -4.16205,2.97893 -7.54473,4.41557 -7.65741,4.46487 h 0.005 c -0.29813,0.12676 -0.607991,0.18545 -0.910814,0.18545 -0.920203,0 -1.79111,-0.53992 -2.169051,-1.43665 -0.502355,-1.19485 0.05634,-2.57046 1.253543,-3.07282 0,-0.009 1.190161,-0.49766 3.105682,-1.60331 1.91083,-1.10331 4.47661,-2.77704 7.01655,-5.02826 5.10103,-4.53998 9.97905,-11.18798 9.97905,-20.31489 0,-4.33106 -1.09157,-9.30062 -3.92026,-15.007289 -2.49535,0.007 -8.22784,0.55869 -13.20679,4.44138 -5.037647,3.943739 -9.744299,11.328839 -9.784207,26.394809 0,2.01882 0.08216,4.16674 0.274654,6.45551 0.105632,1.2911 -0.852128,2.42492 -2.147925,2.53526 -1.293449,0.10563 -2.424923,-0.85683 -2.530559,-2.14793 -0.199534,-2.42023 -0.291085,-4.69491 -0.291085,-6.84284 0,-0.24179 0.01173,-0.46714 0.01408,-0.70658 -3.593957,-0.75354 -7.601067,-1.24885 -12.054195,-1.24885 -0.908466,0 -1.859187,0.0493 -2.802864,0.0916 -0.05634,0.005 -0.105632,0.0329 -0.161975,0.0329 -0.04225,0 -0.07747,-0.0211 -0.11972,-0.0235 -4.474254,0.21831 -9.321754,0.90377 -14.563627,2.28642 -0.01173,2.02586 -0.100942,4.15031 -0.277,6.40621 -0.105633,1.29111 -1.234763,2.25591 -2.525864,2.15497 -1.293449,-0.10563 -2.258254,-1.23476 -2.154966,-2.52821 0.183102,-2.29582 0.269958,-4.44609 0.269958,-6.46255 -0.03782,-15.06589 -4.744472,-22.45569 -9.779769,-26.394719 -4.97661,-3.88269 -10.711449,-4.43435 -13.204449,-4.44608 -2.833381,5.709009 -3.920254,10.680929 -3.920254,15.014339 -0.07747,13.61993 11.159813,21.99567 16.995593,25.34314 1.913178,1.10096 3.105686,1.59627 3.105686,1.59627 v 0.005 c 1.194856,0.50236 1.755898,1.87562 1.253542,3.07282 -0.37794,0.89673 -1.251194,1.43665 -2.16905,1.43665 -0.300475,0 -0.607992,-0.0587 -0.903771,-0.1831 -0.117373,-0.054 -3.908517,-1.67374 -8.408593,-5.02356 -0.467145,0.87795 -1.028187,2.06811 -1.600967,3.61273 -1.500025,4.08928 -3.061084,10.65981 -3.061084,20.36889 z m 73.339269,-3.56579 c 2.46483,0 4.50712,1.90379 4.68318,4.35923 0.0493,0.69015 0.35681,6.8804 -3.89443,11.4462 -1.87093,2.00708 -5.33108,4.40148 -11.206766,4.40148 -1.521152,0 -3.164373,-0.15962 -4.878017,-0.47653 -2.34511,-0.43428 -3.993025,-2.55638 -3.831051,-4.9367 0.347424,-5.11746 4.795857,-14.79368 19.127084,-14.79368 z M 60.446793,133.91807 c 0.443669,-1.22067 1.791109,-1.8451 3.011787,-1.39439 0.169017,0.10094 5.598686,2.00004 9.28889,7.26773 3.690203,-5.26535 9.115178,-7.16444 9.284194,-7.26538 h 0.0047 c 1.211288,-0.44836 2.563423,0.17371 3.011788,1.38969 0.443669,1.21834 -0.178406,2.56578 -1.396737,3.01414 0.0071,0.005 -0.32395,0.11737 -0.974195,0.44367 -0.652594,0.32864 -1.565755,0.84039 -2.544645,1.55167 -1.957778,1.4296 -4.110398,3.61743 -5.169101,6.67382 -0.01877,0.0516 -0.05399,0.0916 -0.07512,0.14085 -0.03756,0.0892 -0.08686,0.16667 -0.136152,0.24883 -0.09625,0.16667 -0.20423,0.31456 -0.335687,0.44836 -0.06572,0.0681 -0.126763,0.13146 -0.199534,0.19015 -0.178407,0.14554 -0.373246,0.26057 -0.586865,0.34742 -0.04225,0.0188 -0.07043,0.054 -0.115024,0.0681 -0.01173,0.005 -0.02348,0.002 -0.03756,0.005 -0.218314,0.0728 -0.448364,0.11034 -0.685458,0.11737 -0.01643,0 -0.03287,0.007 -0.0493,0.007 h -0.0023 -0.0023 c -0.01643,0 -0.03521,-0.007 -0.0493,-0.007 -0.234746,-0.007 -0.462449,-0.0446 -0.68311,-0.11502 -0.01174,-0.005 -0.02583,-0.002 -0.03991,-0.007 -0.0493,-0.0164 -0.08216,-0.0563 -0.12911,-0.0775 -0.204229,-0.0869 -0.392026,-0.19484 -0.56339,-0.33569 -0.07747,-0.0634 -0.143195,-0.13146 -0.21127,-0.20423 -0.122069,-0.12911 -0.225356,-0.26761 -0.316908,-0.42489 -0.05399,-0.0939 -0.107984,-0.18075 -0.150237,-0.27934 -0.01878,-0.047 -0.05164,-0.0822 -0.06807,-0.12912 -1.558712,-4.57284 -5.720754,-7.2419 -7.713746,-8.22079 -0.657287,-0.32864 -0.974195,-0.44367 -0.978889,-0.44367 h 0.0047 c -1.21833,-0.44132 -1.840407,-1.79346 -1.392042,-3.00944 z m -0.143196,16.33831 c 0.448365,-1.21599 1.795805,-1.8451 3.016483,-1.39439 0.169017,0.10094 5.593991,2.00238 9.286542,7.26773 3.690203,-5.26535 9.119873,-7.16679 9.291237,-7.26773 1.215984,-0.44367 2.563424,0.1784 3.011789,1.39439 0.443669,1.21833 -0.178407,2.56577 -1.396738,3.01413 0.0047,0.005 -0.323949,0.11503 -0.974195,0.43898 -0.652593,0.32864 -1.565754,0.84508 -2.539949,1.55636 -1.962474,1.4296 -4.115093,3.61274 -5.173797,6.67382 -0.01877,0.0516 -0.05399,0.0915 -0.07511,0.14085 -0.03756,0.0869 -0.08451,0.16198 -0.131458,0.24414 -0.09859,0.16901 -0.208924,0.31925 -0.342729,0.4554 -0.06103,0.0657 -0.122068,0.12677 -0.194839,0.18545 -0.180755,0.14789 -0.377941,0.26527 -0.596254,0.35447 -0.03991,0.0164 -0.06338,0.0493 -0.105633,0.0634 -0.01173,0.002 -0.02347,0.002 -0.03287,0.005 -0.239441,0.0798 -0.485924,0.12441 -0.73945,0.12441 -0.255872,0 -0.50705,-0.047 -0.744144,-0.12676 -0.0094,-0.002 -0.02112,-0.002 -0.03287,-0.005 -0.04226,-0.0141 -0.06808,-0.0493 -0.107984,-0.0634 -0.213618,-0.0869 -0.408457,-0.20188 -0.586864,-0.34507 -0.07747,-0.0634 -0.143195,-0.12911 -0.208923,-0.19954 -0.122069,-0.12911 -0.227703,-0.26996 -0.319255,-0.42724 -0.05399,-0.0915 -0.105633,-0.17605 -0.147889,-0.27465 -0.01879,-0.047 -0.05164,-0.0822 -0.06808,-0.12911 -1.558711,-4.57754 -5.720754,-7.24425 -7.71844,-8.22549 -0.652593,-0.32864 -0.976542,-0.44367 -0.976542,-0.44367 -1.213636,-0.44836 -1.835713,-1.8005 -1.392042,-3.01648 z m -19.319576,6.36865 c 14.333577,0 18.782008,9.67857 19.127085,14.79603 0.161974,2.38032 -1.485941,4.50242 -3.831051,4.9367 -1.713644,0.3169 -3.356864,0.47653 -4.878016,0.47653 -5.875688,0 -9.338187,-2.39441 -11.206764,-4.40148 -4.253593,-4.56581 -3.943728,-10.75605 -3.894432,-11.4462 0.17606,-2.45779 2.220695,-4.36158 4.683178,-4.36158 z" /><path
       style="fill:#ffffff;stroke-width:2.34745765"
       inkscape:connector-curvature="0"
       id="path28"
       d="m 98.426308,162.18616 c 2.568122,0.36151 4.549372,2.54464 4.549372,5.2137 0,0.13615 -0.0305,0.26057 -0.0399,0.39202 1.81224,-3.00943 1.57045,-6.47193 1.57045,-6.47193 -2.41084,0 -4.40383,0.33568 -6.079915,0.86621 z" /><path
       style="stroke-width:2.34745765"
       inkscape:connector-curvature="0"
       id="path30"
       d="m 85.381486,171.42106 c -0.161974,2.38032 1.485941,4.50242 3.831051,4.9367 1.713644,0.3169 3.356865,0.47653 4.878017,0.47653 5.875686,0 9.338186,-2.39441 11.206766,-4.40148 4.25359,-4.56581 3.94373,-10.75605 3.89443,-11.4462 -0.17606,-2.45779 -2.21835,-4.35923 -4.68318,-4.35923 -14.331227,-0.002 -18.77966,9.67387 -19.127084,14.79368 z m 4.683178,0.3169 c 0,0 0.227703,-3.03291 2.577508,-5.82639 -0.140847,0.47654 -0.239441,0.96715 -0.239441,1.48829 0,2.03525 1.161992,3.78175 2.847467,4.66675 -0.380288,0.0282 -0.744144,0.0728 -1.159644,0.0728 -1.199551,-0.002 -2.535254,-0.12442 -4.02589,-0.40142 z m 12.873456,-3.94608 c 0.009,-0.13145 0.0399,-0.25821 0.0399,-0.39202 0,-2.66906 -1.9836,-4.85219 -4.549371,-5.2137 1.676081,-0.53053 3.669071,-0.86621 6.082261,-0.86621 -0.002,0 0.24179,3.46484 -1.5728,6.47193 z" /><path
       style="stroke-width:2.34745765"
       inkscape:connector-curvature="0"
       id="path32"
       d="m 36.298496,160.98426 c -0.0493,0.69015 -0.356814,6.8804 3.894432,11.4462 1.870924,2.00708 5.331076,4.40148 11.206763,4.40148 1.521153,0 3.164372,-0.15962 4.878017,-0.47653 2.345109,-0.43428 3.993024,-2.55638 3.83105,-4.9367 -0.345077,-5.11746 -4.793508,-14.79603 -19.127084,-14.79603 -2.460136,0.002 -4.504771,1.90614 -4.683178,4.36158 z m 4.685525,0.33569 c 2.495348,0 4.549373,0.34977 6.260669,0.91316 -2.385016,0.51409 -4.173779,2.62915 -4.173779,5.16675 0,0.49766 0.09155,0.9695 0.220661,1.42491 -2.608025,-3.18081 -2.307551,-7.50482 -2.307551,-7.50482 z m 10.418018,10.81708 c -0.237094,0 -0.436628,-0.0329 -0.661984,-0.0423 1.718339,-0.87325 2.906153,-2.63854 2.906153,-4.69726 0,-0.17137 -0.03521,-0.33569 -0.0493,-0.50236 1.65261,2.47657 1.831017,4.84281 1.831017,4.84281 -1.490635,0.277 -2.826338,0.39906 -4.025889,0.39906 z" /><path
       style="fill:#ffffff;stroke-width:2.34745765"
       inkscape:connector-curvature="0"
       id="path34"
       d="m 91.625723,210.97806 c -0.143195,-0.48827 0.262915,-0.72067 -2.157313,-1.23711 -0.302823,-0.0376 -0.558695,-0.0563 -0.795788,-0.0563 -1.556364,0.0775 -1.861535,0.44367 -2.431966,1.31927 -0.516441,0.90377 -0.777008,2.50239 -0.762924,4.04936 -0.0023,0.71598 0.0446,1.40378 0.103293,2.00473 1.251195,-0.40141 2.530559,-1.14556 3.572831,-2.08689 1.643219,-1.40378 2.537601,-3.27705 2.471872,-3.99302 z" /><path
       style="fill:#ffffff;stroke-width:2.34745765"
       inkscape:connector-curvature="0"
       id="path36"
       d="m 57.249555,209.68226 c -0.237093,0 -0.497661,0.0188 -0.800483,0.061 -2.413187,0.51174 -2.007076,0.74884 -2.147924,1.23476 -0.06807,0.71363 0.823958,2.59159 2.46483,3.99068 1.04462,0.93663 2.323984,1.68312 3.577526,2.08454 0.06103,-0.60095 0.107984,-1.28641 0.105633,-2.00238 0.01408,-1.54463 -0.248831,-3.14559 -0.76762,-4.04937 -0.565737,-0.8756 -0.873254,-1.23945 -2.431965,-1.31927 z" /><path
       style="stroke-width:2.34745765"
       inkscape:connector-curvature="0"
       id="path38"
       d="m 54.359834,266.94849 c 6.469593,5.65503 12.868763,7.73487 18.408763,7.73487 0.01877,0 0.03991,0 0.05634,0 11.138686,-0.0704 18.211576,-7.73487 18.406416,-7.89449 0.758228,-0.80284 0.854474,-2.01882 0.232398,-2.93433 -0.624424,-0.91316 -1.795805,-1.26997 -2.812254,-0.85447 -4.511814,1.81693 -9.59406,2.46013 -14.368788,2.46013 -4.777077,0 -9.234898,-0.63381 -12.476738,-1.26997 -3.239491,-0.63851 -5.19727,-1.25589 -5.20666,-1.2512 -1.063399,-0.33099 -2.204263,0.12442 -2.746526,1.09627 -0.546958,0.9695 -0.333338,2.18548 0.507051,2.91319 z" /><path
       style="stroke-width:2.34745765"
       inkscape:connector-curvature="0"
       id="path40"
       d="m 50.394978,339.33939 c -0.922551,0 -1.640872,-0.0915 -2.100974,-0.17371 -0.460102,-0.0822 -0.568085,-0.1385 -0.57278,-0.12677 -1.232415,-0.40845 -2.561076,0.26057 -2.969533,1.49299 -0.408458,1.23241 0.260567,2.55873 1.492982,2.96718 0.190145,0.061 1.694865,0.53287 4.150305,0.53757 1.227721,0 2.68784,-0.12911 4.333407,-0.47184 1.26528,-0.26996 2.075153,-1.51411 1.80989,-2.78174 -0.272305,-1.26997 -1.51411,-2.07984 -2.77939,-1.80989 -1.312228,0.27466 -2.441356,0.36151 -3.363907,0.36621 z" /><path
       style="fill:#ffffff;stroke-width:2.34745765"
       inkscape:connector-curvature="0"
       id="path42"
       d="m 44.756385,392.18065 c 0.126763,0 0.255873,-0.009 0.387331,-0.0328 1.279364,-0.20892 2.145576,-1.41552 1.936652,-2.69254 -0.112678,-0.66198 -0.164322,-1.45541 -0.164322,-2.32632 -0.01878,-5.62217 2.295814,-13.68099 2.274686,-13.69507 0.36151,-1.2465 -0.354465,-2.54465 -1.600965,-2.90381 -1.244153,-0.35916 -2.546992,0.35447 -2.9085,1.60566 v -0.005 c -0.01409,0.10801 -2.436661,8.30296 -2.460136,15.00025 0,1.05636 0.06338,2.08924 0.223009,3.08457 0.192491,1.14556 1.183118,1.96481 2.312245,1.96481 z" /><path
       style="fill:#ffffff;stroke-width:2.34745765"
       inkscape:connector-curvature="0"
       id="path44"
       d="m 82.026969,373.13104 c 0.354466,-1.24415 -0.35916,-2.54699 -1.60566,-2.90146 -1.244153,-0.35916 -2.544645,0.35447 -2.903805,1.60097 -0.01879,0.10568 -2.441356,8.30061 -2.467179,15.00026 0.0071,1.0493 0.05868,2.08688 0.230051,3.09394 0.192492,1.14557 1.187814,1.95778 2.312246,1.95778 0.12911,0 0.258221,-0.0118 0.392026,-0.0328 1.279364,-0.21597 2.138533,-1.4296 1.924915,-2.70427 -0.112674,-0.65494 -0.164322,-1.44369 -0.164322,-2.31459 -0.02112,-5.6245 2.295813,-13.68333 2.281728,-13.69976 z" /><path
       style="fill:#ffffff;stroke-width:2.34745765"
       inkscape:connector-curvature="0"
       id="path46"
       d="m 33.31253,375.74846 c 0.12911,0 0.25822,-0.009 0.389678,-0.0328 1.277017,-0.20893 2.143228,-1.41552 1.934305,-2.69723 -0.112678,-0.65964 -0.164322,-1.45073 -0.164322,-2.31694 -0.01878,-5.62451 2.293466,-13.68569 2.279381,-13.69977 0.359161,-1.24415 -0.359161,-2.54699 -1.603313,-2.90615 -1.244153,-0.35916 -2.546992,0.35916 -2.906153,1.60566 -0.01409,0.10799 -2.439008,8.30061 -2.462483,15.0026 0.0047,1.04932 0.06338,2.0822 0.227703,3.08222 0.18545,1.1432 1.176077,1.96247 2.305204,1.96247 z" /><path
       style="stroke-width:2.34745765"
       inkscape:connector-curvature="0"
       id="path48"
       d="m 61.841181,136.92986 h -0.0047 c 0.0047,0 0.323949,0.11503 0.97889,0.44367 1.995339,0.97889 6.155034,3.6503 7.713746,8.2208 0.01643,0.0493 0.0493,0.0845 0.06807,0.12911 0.04226,0.0986 0.09625,0.18545 0.150237,0.27934 0.09155,0.15494 0.194839,0.29578 0.316907,0.42489 0.06808,0.0728 0.133805,0.14085 0.211271,0.20423 0.171364,0.14085 0.359161,0.24883 0.56339,0.33569 0.04695,0.0211 0.07982,0.0587 0.12911,0.0775 0.01408,0.005 0.02817,0.002 0.03991,0.007 0.220661,0.0728 0.448364,0.10798 0.68311,0.11502 0.01643,0 0.03522,0.007 0.0493,0.007 h 0.0023 0.0023 c 0.01643,0 0.03287,-0.007 0.0493,-0.007 0.237093,-0.005 0.467144,-0.0446 0.685457,-0.11737 0.01408,-0.002 0.02583,0 0.03756,-0.005 0.0446,-0.0141 0.07278,-0.0493 0.115025,-0.0681 0.213618,-0.0869 0.408458,-0.20188 0.586864,-0.34742 0.07278,-0.0587 0.133805,-0.12207 0.199535,-0.19015 0.131457,-0.1338 0.23944,-0.28404 0.335686,-0.44836 0.0493,-0.0822 0.09859,-0.15963 0.136153,-0.24883 0.02112,-0.0493 0.05634,-0.0892 0.07512,-0.14085 1.058703,-3.05639 3.211321,-5.24422 5.169101,-6.67382 0.97889,-0.71128 1.892051,-1.22303 2.544644,-1.55167 0.650246,-0.32864 0.981238,-0.43897 0.974195,-0.44367 1.21833,-0.44836 1.840407,-1.7958 1.396738,-3.01413 -0.448365,-1.21833 -1.802848,-1.84041 -3.011788,-1.3897 h -0.0047 c -0.169016,0.10094 -5.593991,2.00003 -9.284195,7.26538 -3.690203,-5.26769 -9.119872,-7.16679 -9.28889,-7.26773 -1.220677,-0.44836 -2.568118,0.17372 -3.011787,1.39439 -0.450712,1.21364 0.171364,2.56577 1.392042,3.00944 z" /><path
       style="fill:#ffffff;stroke-width:2.34745765"
       inkscape:connector-curvature="0"
       id="path50"
       d="m 12.535184,292.9818 c 0.805177,-4.40149 1.835711,-8.89452 3.112728,-12.465 -0.908466,-1.6174 -2.765305,-5.10338 -4.711348,-9.81472 0.05164,1.02114 0.107984,2.06576 0.169017,3.12916 0.335687,6.04939 0.802831,12.74669 1.429603,19.15056 z" /><path
       style="stroke-width:2.34745765"
       inkscape:connector-curvature="0"
       id="path52"
       d="m 61.697986,153.26817 c 0,0 0.32395,0.11502 0.976543,0.44366 2.000034,0.97889 6.159729,3.64795 7.718441,8.2255 0.01643,0.047 0.0493,0.0822 0.06807,0.12911 0.04225,0.0986 0.0939,0.1831 0.147889,0.27465 0.09155,0.15728 0.194839,0.29813 0.319255,0.42724 0.06808,0.0704 0.133805,0.1385 0.208923,0.19953 0.178407,0.14554 0.373246,0.25822 0.586865,0.34508 0.03991,0.0164 0.06574,0.0493 0.107983,0.0634 0.01174,0.002 0.02347,0.002 0.03287,0.005 0.23944,0.0798 0.488271,0.12676 0.744144,0.12676 0.253526,0 0.502355,-0.047 0.739449,-0.12442 0.0094,-0.002 0.02112,-0.002 0.03287,-0.005 0.04225,-0.0141 0.06572,-0.047 0.105633,-0.0634 0.218313,-0.0892 0.4155,-0.20423 0.596254,-0.35446 0.07278,-0.0587 0.133805,-0.11972 0.194839,-0.18545 0.133805,-0.13616 0.244136,-0.28639 0.34273,-0.45541 0.04695,-0.0822 0.0939,-0.15728 0.131457,-0.24414 0.02112,-0.0493 0.05634,-0.0892 0.07512,-0.14084 1.058703,-3.06109 3.211321,-5.24422 5.173796,-6.67382 0.974195,-0.70894 1.887356,-1.22538 2.53995,-1.55637 0.650245,-0.32395 0.97889,-0.43428 0.974195,-0.43897 1.218329,-0.44837 1.840406,-1.79816 1.396737,-3.01414 -0.448365,-1.21598 -1.798152,-1.84041 -3.011788,-1.39439 -0.171364,0.10094 -5.601034,2.00238 -9.291238,7.26773 -3.69255,-5.26535 -9.117524,-7.16444 -9.286542,-7.26773 -1.220677,-0.44836 -2.568118,0.17841 -3.016482,1.39439 -0.446018,1.22068 0.176059,2.57282 1.392041,3.01648 z" /></g></svg>